<svg xmlns="http://www.w3.org/2000/svg" width="122.998" height="11.998" viewBox="0 0 122.998 11.998"><path d="M3723.281 3218.048v-8.389c0-.365.135-.526.49-.526h1.858c.367 0 .478.161.478.526v7.89c0 .79.7 1.114 1.556 1.114s1.557-.323 1.557-1.114v-7.89c0-.365.138-.526.49-.526h1.865c.354 0 .466.161.466.526v8.389c0 1.487-1.16 2.95-4.378 2.95-3.238.002-4.382-1.464-4.382-2.95zm-19.1 0v-1.148c0-.37.133-.535.5-.535h1.786c.349 0 .471.164.471.535v.773c0 .792.669 1.089 1.513 1.089s1.533-.3 1.533-1.089v-.352c0-.618-.823-.908-1.487-1.148l-2.459-.931a2.562 2.562 0 0 1-1.6-2.294v-.993c0-1.493.891-2.951 4.062-2.951 3.189 0 4.147 1.458 4.147 2.951v.636c0 .357-.137.518-.5.518h-1.79c-.35 0-.476-.161-.476-.518v-.26c0-.8-.553-1.092-1.337-1.092s-1.368.3-1.368 1.092v.18a.78.78 0 0 0 .561.729l2.883.979a2.79 2.79 0 0 1 2.144 2.606v1.226c0 1.487-1.045 2.95-4.281 2.95s-4.302-1.467-4.302-2.953zm-10.543 0v-8.389c0-.365.126-.526.5-.526h1.85c.366 0 .476.161.476.526v7.89c0 .79.7 1.114 1.556 1.114s1.557-.323 1.557-1.114v-7.89c0-.365.141-.526.5-.526h1.846c.358 0 .48.161.48.526v8.389c0 1.487-1.165 2.95-4.386 2.95s-4.379-1.464-4.379-2.95zm49.109 2.81c-.371 0-.5-.16-.5-.526v-5.458c-.008.06-.344 1.261-.536 1.814l-.771 1.878a.668.668 0 0 1-.664.52h-1.491a.694.694 0 0 1-.655-.52l-.948-2.2a11.492 11.492 0 0 1-.436-1.428v5.4c0 .366-.13.526-.488.526h-1.681c-.36 0-.492-.16-.492-.526v-10.673c0-.365.132-.526.492-.526h1.681a.425.425 0 0 1 .445.283l2.334 5.275c.249.58.469 1.3.5 1.358a11.188 11.188 0 0 1 .489-1.336l2.264-5.336c.07-.174.2-.243.457-.243h1.766c.356 0 .482.161.482.526v10.673c0 .366-.126.526-.482.526zm-27.717 0c-.352 0-.5-.167-.5-.526v-10.673c0-.365.149-.526.5-.526h5.874c.36 0 .518.122.518.489v1.347c0 .355-.158.5-.518.5h-3.538v2.235h3.262c.358 0 .522.121.522.484v1.258c0 .359-.165.5-.522.5h-3.262v2.586h3.713c.365 0 .507.116.507.479v1.342c0 .359-.142.5-.507.5zm-25.67 0c-.354 0-.5-.16-.5-.526v-5.458c-.023.06-.342 1.261-.549 1.814l-.766 1.878a.675.675 0 0 1-.667.52h-1.478c-.342 0-.518-.217-.658-.52l-.932-2.2a11.429 11.429 0 0 1-.459-1.428v5.4c0 .366-.12.526-.472.526h-1.688c-.363 0-.506-.16-.506-.526v-10.673c0-.365.143-.526.506-.526h1.688a.43.43 0 0 1 .444.283l2.331 5.275c.241.58.462 1.3.5 1.358a12.5 12.5 0 0 1 .5-1.336l2.241-5.336c.073-.174.212-.243.468-.243h1.772c.358 0 .473.161.473.526v10.673c0 .366-.115.526-.473.526zm-15.726 0c-.375 0-.51-.16-.51-.526v-5.458c-.011.06-.338 1.261-.538 1.814l-.761 1.878c-.138.335-.314.52-.667.52h-1.49c-.351 0-.521-.217-.664-.52l-.938-2.2c-.183-.436-.407-1.3-.448-1.428v5.4c0 .366-.117.526-.479.526h-1.687c-.362 0-.494-.16-.494-.526v-10.673c0-.365.132-.526.494-.526h1.687a.413.413 0 0 1 .441.283l2.346 5.275c.231.58.456 1.3.492 1.358a10.772 10.772 0 0 1 .494-1.336l2.25-5.336c.072-.174.218-.243.472-.243h1.769c.354 0 .475.161.475.526v10.673c0 .366-.121.526-.475.526zm-13.061 0c-.366 0-.5-.16-.5-.526v-10.673c0-.365.131-.526.5-.526h1.851c.356 0 .483.161.483.526v10.673c0 .366-.127.526-.483.526zm-8.405 0c-.31 0-.442-.18-.442-.526v-10.673c0-.365.132-.526.5-.526h1.847c.365 0 .492.161.492.526v8.876h3.357c.362 0 .512.116.512.479v1.342c0 .359-.15.5-.512.5zm-8.756 0c-.362 0-.5-.167-.5-.526v-10.673c0-.365.139-.526.5-.526h5.875c.352 0 .5.122.5.489v1.347c0 .355-.149.5-.5.5h-3.541v2.235H3649c.363 0 .52.121.52.484v1.258c0 .359-.157.5-.52.5h-3.258v2.586h3.7c.367 0 .528.116.528.479v1.342c0 .359-.161.5-.528.5zm-4.347 0c-.37 0-.522-.188-.609-.526l-.442-1.638h-2.85l-.449 1.638c-.092.338-.237.526-.6.526h-1.734c-.358 0-.479-.188-.376-.526l3.105-10.673c.109-.344.271-.526.635-.526h1.86a.6.6 0 0 1 .634.526l3.107 10.673c.1.338-.013.526-.377.526zm-3.036-5.339-.248.923h1.613l-.24-.923a34.58 34.58 0 0 1-.536-3.612 33.939 33.939 0 0 1-.588 3.612zm-13.6 5.339c-.311 0-.431-.18-.431-.526v-10.673c0-.365.139-.526.5-.526h3.888c3.226 0 4.4 1.465 4.4 2.945v5.832c0 1.486-1.171 2.949-4.4 2.949zm2.407-2.323h1.545c.845 0 1.557-.327 1.557-1.124v-4.823c0-.792-.712-1.134-1.557-1.134h-1.545z" transform="translate(-3621.997 -3209)" style="fill:#fff"/></svg>